<svg xmlns="http://www.w3.org/2000/svg" xmlns:xlink="http://www.w3.org/1999/xlink" width="50" zoomAndPan="magnify" viewBox="0 0 37.5 37.499999" height="50" preserveAspectRatio="xMidYMid meet" version="1.0"><defs><g/></defs><g fill="#ffffff" fill-opacity="1"><g transform="translate(0.0217902, 31.998107)"><g><path d="M 1.578125 -12.84375 C 1.578125 -15.351562 2.140625 -17.609375 3.265625 -19.609375 C 4.398438 -21.609375 5.941406 -23.171875 7.890625 -24.296875 C 9.847656 -25.421875 12.015625 -25.984375 14.390625 -25.984375 C 17.191406 -25.984375 19.632812 -25.304688 21.71875 -23.953125 C 23.800781 -22.609375 25.320312 -20.695312 26.28125 -18.21875 L 22.265625 -18.21875 C 21.554688 -19.769531 20.53125 -20.960938 19.1875 -21.796875 C 17.851562 -22.628906 16.253906 -23.046875 14.390625 -23.046875 C 12.597656 -23.046875 10.988281 -22.628906 9.5625 -21.796875 C 8.144531 -20.960938 7.03125 -19.773438 6.21875 -18.234375 C 5.40625 -16.703125 5 -14.90625 5 -12.84375 C 5 -10.8125 5.40625 -9.023438 6.21875 -7.484375 C 7.03125 -5.953125 8.144531 -4.769531 9.5625 -3.9375 C 10.988281 -3.101562 12.597656 -2.6875 14.390625 -2.6875 C 16.253906 -2.6875 17.851562 -3.097656 19.1875 -3.921875 C 20.53125 -4.742188 21.554688 -5.925781 22.265625 -7.46875 L 26.28125 -7.46875 C 25.320312 -5.019531 23.800781 -3.125 21.71875 -1.78125 C 19.632812 -0.445312 17.191406 0.21875 14.390625 0.21875 C 12.015625 0.21875 9.847656 -0.335938 7.890625 -1.453125 C 5.941406 -2.566406 4.398438 -4.117188 3.265625 -6.109375 C 2.140625 -8.097656 1.578125 -10.34375 1.578125 -12.84375 Z M 1.578125 -12.84375 "/></g></g></g><g fill="#5e16ec" fill-opacity="1"><g transform="translate(28.413709, 31.998107)"><g><path d="M 6.1875 -25.65625 L 6.1875 0 L 2.828125 0 L 2.828125 -25.65625 Z M 6.1875 -25.65625 "/></g></g></g></svg>