<svg xmlns="http://www.w3.org/2000/svg" xmlns:xlink="http://www.w3.org/1999/xlink" width="250" zoomAndPan="magnify" viewBox="0 0 187.5 112.499997" height="150" preserveAspectRatio="xMidYMid meet" version="1.0"><defs><g/><clipPath id="id1"><path d="M 33 19 L 147 19 L 147 73 L 33 73 Z M 33 19 " clip-rule="nonzero"/></clipPath><clipPath id="id2"><path d="M 39.785156 0 L 152.703125 19.261719 L 140.992188 87.898438 L 28.078125 68.636719 Z M 39.785156 0 " clip-rule="nonzero"/></clipPath><clipPath id="id3"><path d="M 39.785156 0 L 152.703125 19.261719 L 140.992188 87.898438 L 28.078125 68.636719 Z M 39.785156 0 " clip-rule="nonzero"/></clipPath><clipPath id="id4"><path d="M 39.785156 0 L 152.703125 19.261719 L 140.992188 87.898438 L 28.078125 68.636719 Z M 39.785156 0 " clip-rule="nonzero"/></clipPath><clipPath id="id5"><path d="M 56 10 L 121 10 L 121 95 L 56 95 Z M 56 10 " clip-rule="nonzero"/></clipPath><clipPath id="id6"><path d="M 139.183594 41.375 L 87.988281 102.988281 L 41.921875 64.710938 L 93.121094 3.097656 Z M 139.183594 41.375 " clip-rule="nonzero"/></clipPath><clipPath id="id7"><path d="M 139.183594 41.375 L 87.988281 102.988281 L 41.921875 64.710938 L 93.121094 3.097656 Z M 139.183594 41.375 " clip-rule="nonzero"/></clipPath><clipPath id="id8"><path d="M 139.183594 41.375 L 87.988281 102.988281 L 41.921875 64.710938 L 93.121094 3.097656 Z M 139.183594 41.375 " clip-rule="nonzero"/></clipPath><clipPath id="id9"><path d="M 85 42.671875 L 96 42.671875 L 96 54 L 85 54 Z M 85 42.671875 " clip-rule="nonzero"/></clipPath><clipPath id="id10"><path d="M 82 42.671875 L 86 42.671875 L 86 46 L 82 46 Z M 82 42.671875 " clip-rule="nonzero"/></clipPath><clipPath id="id11"><path d="M 95 42.671875 L 99 42.671875 L 99 46 L 95 46 Z M 95 42.671875 " clip-rule="nonzero"/></clipPath><clipPath id="id12"><path d="M 80.875 57.296875 L 89.984375 57.296875 L 89.984375 68.875 L 80.875 68.875 Z M 80.875 57.296875 " clip-rule="nonzero"/></clipPath><clipPath id="id13"><path d="M 90.777344 57.296875 L 99.886719 57.296875 L 99.886719 68.875 L 90.777344 68.875 Z M 90.777344 57.296875 " clip-rule="nonzero"/></clipPath><clipPath id="id14"><path d="M 77.65625 54 L 103.113281 54 L 103.113281 61 L 77.65625 61 Z M 77.65625 54 " clip-rule="nonzero"/></clipPath><clipPath id="id15"><path d="M 101.214844 87.644531 L 170 87.644531 L 170 97.375 L 101.214844 97.375 Z M 101.214844 87.644531 " clip-rule="nonzero"/></clipPath></defs><g clip-path="url(#id1)"><g clip-path="url(#id2)"><g clip-path="url(#id3)"><g clip-path="url(#id4)"><path fill="#08bdba" d="M 139.765625 20.972656 C 149.226562 26.15625 148.246094 45.378906 138.84375 53.324219 C 129.363281 61.160156 111.386719 57.613281 96.554688 60.871094 C 81.726562 64.128906 70.230469 74.226562 57.273438 72.691406 C 44.332031 71.0625 29.910156 57.894531 34.515625 49.996094 C 39.117188 42.101562 62.578125 39.351562 75.054688 37.523438 C 87.550781 35.601562 89.152344 34.621094 99.769531 29.679688 C 110.492188 24.660156 130.304688 15.789062 139.765625 20.972656 Z M 139.765625 20.972656 " fill-opacity="1" fill-rule="nonzero"/></g></g></g></g><g clip-path="url(#id5)"><g clip-path="url(#id6)"><g clip-path="url(#id7)"><g clip-path="url(#id8)"><path fill="#ff0066" d="M 102.464844 84.320312 C 96.238281 90.582031 86.421875 96.050781 79.867188 93.421875 C 73.265625 90.757812 69.96875 79.949219 65.195312 70.816406 C 60.511719 61.675781 54.308594 54.171875 56.894531 48.882812 C 59.441406 43.636719 70.683594 40.527344 76.859375 33.285156 C 82.988281 26.003906 84.003906 14.554688 88.632812 11.351562 C 93.300781 8.101562 101.535156 13.066406 108.578125 17.664062 C 115.582031 22.308594 121.4375 26.628906 120.753906 32.09375 C 120.027344 37.515625 112.796875 44.039062 110.574219 49.554688 C 108.351562 55.070312 111.140625 59.578125 111.253906 65.3125 C 111.371094 71.046875 108.691406 78.0625 102.464844 84.320312 Z M 102.464844 84.320312 " fill-opacity="1" fill-rule="nonzero"/></g></g></g></g><g clip-path="url(#id9)"><path fill="#ffffff" d="M 89.585938 47.75 L 91.171875 47.75 C 91.609375 47.75 91.964844 48.113281 91.964844 48.5625 C 91.964844 49.011719 91.609375 49.375 91.171875 49.375 L 89.585938 49.375 C 89.148438 49.375 88.796875 49.011719 88.796875 48.5625 C 88.796875 48.113281 89.148438 47.75 89.585938 47.75 Z M 87.375 51.523438 C 87.898438 51.960938 88.003906 52.269531 88.003906 52.625 L 88.003906 53.4375 L 92.757812 53.4375 L 92.757812 52.625 C 92.757812 52.195312 92.910156 51.902344 93.304688 51.589844 C 94.464844 50.660156 95.132812 49.257812 95.132812 47.75 C 95.132812 46.277344 94.492188 44.894531 93.375 43.964844 C 92.257812 43.035156 90.796875 42.675781 89.363281 42.984375 C 87.496094 43.386719 86.023438 44.957031 85.699219 46.894531 C 85.402344 48.664062 86.027344 50.398438 87.375 51.523438 " fill-opacity="1" fill-rule="nonzero"/></g><g clip-path="url(#id10)"><path fill="#ffffff" d="M 83.125 44.390625 L 84.496094 45.203125 C 84.621094 45.277344 84.757812 45.3125 84.890625 45.3125 C 85.164062 45.3125 85.429688 45.167969 85.578125 44.90625 C 85.796875 44.519531 85.667969 44.019531 85.289062 43.796875 L 83.914062 42.984375 C 83.535156 42.757812 83.050781 42.890625 82.832031 43.28125 C 82.613281 43.671875 82.746094 44.167969 83.125 44.390625 " fill-opacity="1" fill-rule="nonzero"/></g><path fill="#ffffff" d="M 82.457031 48.5625 L 84.042969 48.5625 C 84.480469 48.5625 84.835938 48.199219 84.835938 47.75 C 84.835938 47.300781 84.480469 46.9375 84.042969 46.9375 L 82.457031 46.9375 C 82.019531 46.9375 81.667969 47.300781 81.667969 47.75 C 81.667969 48.199219 82.019531 48.5625 82.457031 48.5625 " fill-opacity="1" fill-rule="nonzero"/><path fill="#ffffff" d="M 84.496094 50.296875 L 83.125 51.109375 C 82.746094 51.332031 82.613281 51.832031 82.832031 52.21875 C 82.980469 52.480469 83.246094 52.625 83.519531 52.625 C 83.65625 52.625 83.792969 52.589844 83.914062 52.515625 L 85.289062 51.703125 C 85.667969 51.480469 85.796875 50.984375 85.578125 50.59375 C 85.359375 50.203125 84.875 50.070312 84.496094 50.296875 " fill-opacity="1" fill-rule="nonzero"/><path fill="#ffffff" d="M 96.265625 50.296875 C 95.886719 50.070312 95.402344 50.203125 95.183594 50.59375 C 94.964844 50.984375 95.09375 51.480469 95.472656 51.703125 L 96.84375 52.515625 C 96.96875 52.589844 97.105469 52.625 97.238281 52.625 C 97.511719 52.625 97.777344 52.480469 97.925781 52.21875 C 98.144531 51.832031 98.015625 51.332031 97.636719 51.109375 L 96.265625 50.296875 " fill-opacity="1" fill-rule="nonzero"/><path fill="#ffffff" d="M 95.925781 47.75 C 95.925781 48.199219 96.28125 48.5625 96.71875 48.5625 L 98.300781 48.5625 C 98.738281 48.5625 99.09375 48.199219 99.09375 47.75 C 99.09375 47.300781 98.738281 46.9375 98.300781 46.9375 L 96.71875 46.9375 C 96.28125 46.9375 95.925781 47.300781 95.925781 47.75 " fill-opacity="1" fill-rule="nonzero"/><g clip-path="url(#id11)"><path fill="#ffffff" d="M 95.867188 45.3125 C 96.003906 45.3125 96.140625 45.277344 96.265625 45.203125 L 97.636719 44.390625 C 98.015625 44.167969 98.144531 43.671875 97.925781 43.28125 C 97.707031 42.890625 97.222656 42.757812 96.84375 42.984375 L 95.472656 43.796875 C 95.09375 44.019531 94.964844 44.519531 95.183594 44.90625 C 95.328125 45.167969 95.59375 45.3125 95.867188 45.3125 " fill-opacity="1" fill-rule="nonzero"/></g><g clip-path="url(#id12)"><path fill="#ffffff" d="M 86.417969 61.5625 L 80.875 61.5625 L 80.875 68.0625 C 80.875 68.511719 81.230469 68.875 81.667969 68.875 L 89.984375 68.875 L 89.984375 57.382812 L 87.738281 60.839844 C 87.441406 61.292969 86.949219 61.5625 86.417969 61.5625 " fill-opacity="1" fill-rule="nonzero"/></g><g clip-path="url(#id13)"><path fill="#ffffff" d="M 93.023438 60.839844 L 90.777344 57.382812 L 90.777344 68.875 L 99.09375 68.875 C 99.53125 68.875 99.886719 68.511719 99.886719 68.0625 L 99.886719 61.5625 L 94.339844 61.5625 C 93.808594 61.5625 93.316406 61.292969 93.023438 60.839844 " fill-opacity="1" fill-rule="nonzero"/></g><g clip-path="url(#id14)"><path fill="#ffffff" d="M 102.921875 59.488281 L 99.753906 54.613281 C 99.605469 54.386719 99.359375 54.25 99.09375 54.25 L 81.667969 54.25 C 81.402344 54.25 81.152344 54.386719 81.007812 54.613281 L 77.839844 59.488281 C 77.675781 59.738281 77.660156 60.058594 77.796875 60.320312 C 77.9375 60.585938 78.207031 60.75 78.496094 60.75 L 86.417969 60.75 C 86.683594 60.75 86.929688 60.613281 87.078125 60.386719 L 90.246094 55.511719 C 90.335938 55.378906 90.375 55.222656 90.375 55.0625 L 90.382812 55.0625 C 90.382812 55.222656 90.425781 55.378906 90.511719 55.511719 L 93.679688 60.386719 C 93.828125 60.613281 94.074219 60.75 94.339844 60.75 L 102.261719 60.75 C 102.554688 60.75 102.824219 60.585938 102.960938 60.320312 C 103.097656 60.058594 103.082031 59.738281 102.921875 59.488281 " fill-opacity="1" fill-rule="nonzero"/></g><g clip-path="url(#id15)"><path fill="#ef38f9" d="M 169.550781 95.25 C 169.390625 96.414062 168.335938 97.226562 167.179688 97.066406 C 166.476562 96.960938 165.777344 96.886719 165.074219 96.84375 C 164.488281 96.8125 163.902344 96.800781 163.320312 96.769531 L 161.417969 96.679688 C 160.027344 96.621094 158.636719 96.460938 157.261719 96.3125 C 156.429688 96.222656 155.609375 96.121094 154.777344 96.0625 C 153.136719 95.957031 151.5 95.972656 149.863281 95.972656 C 148.851562 95.972656 147.84375 95.972656 146.835938 95.957031 C 146.207031 95.941406 145.5625 95.914062 144.933594 95.898438 C 144.261719 95.882812 143.585938 95.867188 142.914062 95.855469 C 142.242188 95.839844 141.570312 95.808594 140.882812 95.78125 C 140.195312 95.75 139.519531 95.75 138.832031 95.75 C 137.515625 95.75 136.199219 95.765625 134.882812 95.765625 L 133.554688 95.765625 C 132.660156 95.765625 131.769531 95.765625 130.875 95.765625 C 130.042969 95.765625 129.207031 95.796875 128.359375 95.839844 C 127.570312 95.867188 126.78125 95.898438 125.992188 95.941406 C 125.347656 96 124.6875 96.0625 124.046875 96.121094 C 123.359375 96.179688 122.65625 96.238281 121.96875 96.296875 C 120.578125 96.414062 119.175781 96.59375 117.785156 96.679688 C 116.847656 96.742188 115.914062 96.785156 114.992188 96.84375 C 113.632812 96.933594 112.269531 97.035156 110.910156 97.09375 C 110.238281 97.125 109.566406 97.152344 108.878906 97.183594 C 108.191406 97.214844 107.503906 97.226562 106.828125 97.273438 L 106.640625 97.285156 C 106.214844 97.316406 105.792969 97.347656 105.351562 97.359375 C 105.074219 97.375 104.8125 97.375 104.53125 97.375 L 104.3125 97.375 C 103.144531 97.375 102.207031 96.429688 102.207031 95.25 C 102.207031 94.066406 103.144531 93.121094 104.3125 93.121094 L 104.34375 93.121094 C 104.636719 93.121094 104.929688 93.121094 105.21875 93.105469 C 105.570312 93.09375 105.921875 93.078125 106.273438 93.046875 L 106.070312 93.0625 C 107.179688 92.988281 108.277344 92.945312 109.390625 92.898438 C 108.863281 92.886719 108.335938 92.886719 107.808594 92.886719 C 107.164062 92.886719 106.535156 92.914062 105.894531 92.914062 C 105.410156 92.914062 104.914062 92.914062 104.429688 92.914062 C 104.242188 92.914062 104.035156 92.914062 103.84375 92.898438 C 103.789062 92.898438 103.742188 92.898438 103.683594 92.898438 C 102.542969 92.914062 101.59375 91.957031 101.59375 90.789062 C 101.59375 89.621094 102.542969 88.660156 103.699219 88.660156 C 103.816406 88.660156 103.949219 88.675781 104.066406 88.675781 C 104.371094 88.675781 104.679688 88.675781 104.988281 88.675781 C 105.628906 88.675781 106.289062 88.660156 106.933594 88.648438 C 107.574219 88.632812 108.21875 88.617188 108.847656 88.632812 C 109.507812 88.648438 110.179688 88.660156 110.835938 88.675781 C 112.167969 88.707031 113.484375 88.707031 114.816406 88.691406 C 116.148438 88.675781 117.464844 88.617188 118.792969 88.542969 C 119.453125 88.5 120.125 88.46875 120.785156 88.425781 C 121.484375 88.382812 122.1875 88.335938 122.875 88.292969 C 123.535156 88.261719 124.191406 88.234375 124.851562 88.203125 C 126.121094 88.160156 127.394531 88.101562 128.667969 88.070312 C 130.011719 88.042969 131.359375 88.027344 132.703125 87.96875 C 134.019531 87.910156 135.351562 87.835938 136.667969 87.777344 C 137.984375 87.714844 139.332031 87.671875 140.648438 87.65625 C 141.949219 87.644531 143.25 87.644531 144.550781 87.644531 C 145.867188 87.65625 147.199219 87.671875 148.515625 87.6875 C 149.832031 87.703125 151.121094 87.6875 152.421875 87.6875 L 160.261719 87.6875 C 161.066406 87.6875 161.871094 87.671875 162.675781 87.703125 C 163.085938 87.714844 163.496094 87.730469 163.902344 87.746094 C 164.226562 87.761719 164.5625 87.777344 164.898438 87.777344 C 166.054688 87.644531 167.105469 88.46875 167.238281 89.636719 C 167.296875 90.183594 167.152344 90.742188 166.816406 91.1875 C 166.476562 91.628906 165.980469 91.910156 165.425781 92 C 165.058594 92.042969 164.679688 92.042969 164.3125 92.015625 C 163.992188 92 163.667969 91.984375 163.347656 91.984375 C 162.703125 91.957031 162.074219 91.941406 161.445312 91.941406 L 156.445312 91.941406 C 157 92 157.542969 92.058594 158.097656 92.117188 C 158.988281 92.207031 159.867188 92.308594 160.757812 92.382812 C 161.316406 92.414062 161.855469 92.441406 162.410156 92.457031 C 162.96875 92.472656 163.523438 92.5 164.078125 92.53125 C 165.308594 92.574219 166.535156 92.679688 167.75 92.839844 C 168.90625 93.003906 169.710938 94.082031 169.550781 95.25 Z M 169.550781 95.25 " fill-opacity="0.698" fill-rule="nonzero"/></g><g fill="#ffffff" fill-opacity="1"><g transform="translate(15.3517, 90.080636)"><g><path d="M 0.84375 -6.890625 C 0.84375 -8.242188 1.144531 -9.457031 1.75 -10.53125 C 2.363281 -11.601562 3.191406 -12.441406 4.234375 -13.046875 C 5.285156 -13.648438 6.453125 -13.953125 7.734375 -13.953125 C 9.234375 -13.953125 10.539062 -13.585938 11.65625 -12.859375 C 12.78125 -12.140625 13.597656 -11.113281 14.109375 -9.78125 L 11.953125 -9.78125 C 11.578125 -10.613281 11.03125 -11.253906 10.3125 -11.703125 C 9.59375 -12.148438 8.734375 -12.375 7.734375 -12.375 C 6.765625 -12.375 5.898438 -12.148438 5.140625 -11.703125 C 4.378906 -11.253906 3.78125 -10.617188 3.34375 -9.796875 C 2.90625 -8.972656 2.6875 -8.003906 2.6875 -6.890625 C 2.6875 -5.796875 2.90625 -4.835938 3.34375 -4.015625 C 3.78125 -3.191406 4.378906 -2.554688 5.140625 -2.109375 C 5.898438 -1.660156 6.765625 -1.4375 7.734375 -1.4375 C 8.734375 -1.4375 9.59375 -1.65625 10.3125 -2.09375 C 11.03125 -2.539062 11.578125 -3.179688 11.953125 -4.015625 L 14.109375 -4.015625 C 13.597656 -2.691406 12.78125 -1.671875 11.65625 -0.953125 C 10.539062 -0.234375 9.234375 0.125 7.734375 0.125 C 6.453125 0.125 5.285156 -0.175781 4.234375 -0.78125 C 3.191406 -1.382812 2.363281 -2.21875 1.75 -3.28125 C 1.144531 -4.34375 0.84375 -5.546875 0.84375 -6.890625 Z M 0.84375 -6.890625 "/></g></g></g><g fill="#ffffff" fill-opacity="1"><g transform="translate(30.604783, 90.080636)"><g><path d="M 3.328125 -9.078125 C 3.640625 -9.691406 4.085938 -10.171875 4.671875 -10.515625 C 5.253906 -10.859375 5.96875 -11.03125 6.8125 -11.03125 L 6.8125 -9.171875 L 6.34375 -9.171875 C 4.332031 -9.171875 3.328125 -8.078125 3.328125 -5.890625 L 3.328125 0 L 1.515625 0 L 1.515625 -10.828125 L 3.328125 -10.828125 Z M 3.328125 -9.078125 "/></g></g></g><g fill="#ffffff" fill-opacity="1"><g transform="translate(37.97447, 90.080636)"><g><path d="M 11.40625 -5.828125 C 11.40625 -5.484375 11.382812 -5.125 11.34375 -4.75 L 2.6875 -4.75 C 2.75 -3.675781 3.113281 -2.835938 3.78125 -2.234375 C 4.445312 -1.640625 5.253906 -1.34375 6.203125 -1.34375 C 6.984375 -1.34375 7.632812 -1.523438 8.15625 -1.890625 C 8.675781 -2.253906 9.039062 -2.738281 9.25 -3.34375 L 11.1875 -3.34375 C 10.894531 -2.300781 10.3125 -1.453125 9.4375 -0.796875 C 8.570312 -0.148438 7.492188 0.171875 6.203125 0.171875 C 5.179688 0.171875 4.265625 -0.0546875 3.453125 -0.515625 C 2.640625 -0.972656 2 -1.625 1.53125 -2.46875 C 1.070312 -3.320312 0.84375 -4.3125 0.84375 -5.4375 C 0.84375 -6.550781 1.066406 -7.53125 1.515625 -8.375 C 1.960938 -9.21875 2.59375 -9.867188 3.40625 -10.328125 C 4.21875 -10.785156 5.148438 -11.015625 6.203125 -11.015625 C 7.234375 -11.015625 8.144531 -10.789062 8.9375 -10.34375 C 9.726562 -9.894531 10.335938 -9.273438 10.765625 -8.484375 C 11.191406 -7.703125 11.40625 -6.816406 11.40625 -5.828125 Z M 9.546875 -6.203125 C 9.546875 -6.890625 9.394531 -7.476562 9.09375 -7.96875 C 8.789062 -8.46875 8.378906 -8.84375 7.859375 -9.09375 C 7.335938 -9.351562 6.757812 -9.484375 6.125 -9.484375 C 5.21875 -9.484375 4.441406 -9.191406 3.796875 -8.609375 C 3.160156 -8.035156 2.796875 -7.234375 2.703125 -6.203125 Z M 9.546875 -6.203125 "/></g></g></g><g fill="#ffffff" fill-opacity="1"><g transform="translate(50.224352, 90.080636)"><g><path d="M 0.84375 -5.453125 C 0.84375 -6.554688 1.066406 -7.523438 1.515625 -8.359375 C 1.960938 -9.203125 2.578125 -9.851562 3.359375 -10.3125 C 4.148438 -10.78125 5.023438 -11.015625 5.984375 -11.015625 C 6.929688 -11.015625 7.753906 -10.804688 8.453125 -10.390625 C 9.148438 -9.984375 9.671875 -9.472656 10.015625 -8.859375 L 10.015625 -10.828125 L 11.84375 -10.828125 L 11.84375 0 L 10.015625 0 L 10.015625 -2.015625 C 9.660156 -1.378906 9.128906 -0.851562 8.421875 -0.4375 C 7.722656 -0.03125 6.90625 0.171875 5.96875 0.171875 C 5.007812 0.171875 4.140625 -0.0625 3.359375 -0.53125 C 2.578125 -1.007812 1.960938 -1.675781 1.515625 -2.53125 C 1.066406 -3.382812 0.84375 -4.359375 0.84375 -5.453125 Z M 10.015625 -5.4375 C 10.015625 -6.25 9.847656 -6.957031 9.515625 -7.5625 C 9.191406 -8.175781 8.75 -8.644531 8.1875 -8.96875 C 7.632812 -9.289062 7.019531 -9.453125 6.34375 -9.453125 C 5.675781 -9.453125 5.0625 -9.289062 4.5 -8.96875 C 3.945312 -8.65625 3.503906 -8.195312 3.171875 -7.59375 C 2.847656 -6.988281 2.6875 -6.273438 2.6875 -5.453125 C 2.6875 -4.617188 2.847656 -3.894531 3.171875 -3.28125 C 3.503906 -2.675781 3.945312 -2.210938 4.5 -1.890625 C 5.0625 -1.566406 5.675781 -1.40625 6.34375 -1.40625 C 7.019531 -1.40625 7.632812 -1.566406 8.1875 -1.890625 C 8.75 -2.210938 9.191406 -2.675781 9.515625 -3.28125 C 9.847656 -3.894531 10.015625 -4.613281 10.015625 -5.4375 Z M 10.015625 -5.4375 "/></g></g></g><g fill="#ffffff" fill-opacity="1"><g transform="translate(63.580678, 90.080636)"><g><path d="M 3.71875 -9.34375 L 3.71875 -2.96875 C 3.71875 -2.4375 3.828125 -2.0625 4.046875 -1.84375 C 4.273438 -1.625 4.664062 -1.515625 5.21875 -1.515625 L 6.546875 -1.515625 L 6.546875 0 L 4.921875 0 C 3.921875 0 3.171875 -0.226562 2.671875 -0.6875 C 2.171875 -1.15625 1.921875 -1.914062 1.921875 -2.96875 L 1.921875 -9.34375 L 0.515625 -9.34375 L 0.515625 -10.828125 L 1.921875 -10.828125 L 1.921875 -13.5625 L 3.71875 -13.5625 L 3.71875 -10.828125 L 6.546875 -10.828125 L 6.546875 -9.34375 Z M 3.71875 -9.34375 "/></g></g></g><g fill="#ffffff" fill-opacity="1"><g transform="translate(70.772542, 90.080636)"><g><path d="M 2.453125 -12.59375 C 2.109375 -12.59375 1.816406 -12.707031 1.578125 -12.9375 C 1.335938 -13.175781 1.21875 -13.46875 1.21875 -13.8125 C 1.21875 -14.15625 1.335938 -14.445312 1.578125 -14.6875 C 1.816406 -14.925781 2.109375 -15.046875 2.453125 -15.046875 C 2.773438 -15.046875 3.050781 -14.925781 3.28125 -14.6875 C 3.519531 -14.445312 3.640625 -14.15625 3.640625 -13.8125 C 3.640625 -13.46875 3.519531 -13.175781 3.28125 -12.9375 C 3.050781 -12.707031 2.773438 -12.59375 2.453125 -12.59375 Z M 3.328125 -10.828125 L 3.328125 0 L 1.515625 0 L 1.515625 -10.828125 Z M 3.328125 -10.828125 "/></g></g></g><g fill="#ffffff" fill-opacity="1"><g transform="translate(75.632984, 90.080636)"><g><path d="M 5.546875 -1.65625 L 8.921875 -10.828125 L 10.828125 -10.828125 L 6.578125 0 L 4.484375 0 L 0.234375 -10.828125 L 2.171875 -10.828125 Z M 5.546875 -1.65625 "/></g></g></g><g fill="#ffffff" fill-opacity="1"><g transform="translate(86.717155, 90.080636)"><g><path d="M 11.40625 -5.828125 C 11.40625 -5.484375 11.382812 -5.125 11.34375 -4.75 L 2.6875 -4.75 C 2.75 -3.675781 3.113281 -2.835938 3.78125 -2.234375 C 4.445312 -1.640625 5.253906 -1.34375 6.203125 -1.34375 C 6.984375 -1.34375 7.632812 -1.523438 8.15625 -1.890625 C 8.675781 -2.253906 9.039062 -2.738281 9.25 -3.34375 L 11.1875 -3.34375 C 10.894531 -2.300781 10.3125 -1.453125 9.4375 -0.796875 C 8.570312 -0.148438 7.492188 0.171875 6.203125 0.171875 C 5.179688 0.171875 4.265625 -0.0546875 3.453125 -0.515625 C 2.640625 -0.972656 2 -1.625 1.53125 -2.46875 C 1.070312 -3.320312 0.84375 -4.3125 0.84375 -5.4375 C 0.84375 -6.550781 1.066406 -7.53125 1.515625 -8.375 C 1.960938 -9.21875 2.59375 -9.867188 3.40625 -10.328125 C 4.21875 -10.785156 5.148438 -11.015625 6.203125 -11.015625 C 7.234375 -11.015625 8.144531 -10.789062 8.9375 -10.34375 C 9.726562 -9.894531 10.335938 -9.273438 10.765625 -8.484375 C 11.191406 -7.703125 11.40625 -6.816406 11.40625 -5.828125 Z M 9.546875 -6.203125 C 9.546875 -6.890625 9.394531 -7.476562 9.09375 -7.96875 C 8.789062 -8.46875 8.378906 -8.84375 7.859375 -9.09375 C 7.335938 -9.351562 6.757812 -9.484375 6.125 -9.484375 C 5.21875 -9.484375 4.441406 -9.191406 3.796875 -8.609375 C 3.160156 -8.035156 2.796875 -7.234375 2.703125 -6.203125 Z M 9.546875 -6.203125 "/></g></g></g><g fill="#ffffff" fill-opacity="1"><g transform="translate(98.967037, 90.080636)"><g/></g></g><g fill="#5e16ec" fill-opacity="1"><g transform="translate(104.233161, 90.080636)"><g><path d="M 3.328125 -13.78125 L 3.328125 0 L 1.515625 0 L 1.515625 -13.78125 Z M 3.328125 -13.78125 "/></g></g></g><g fill="#5e16ec" fill-opacity="1"><g transform="translate(109.093604, 90.080636)"><g><path d="M 3.328125 -8.828125 C 3.679688 -9.453125 4.207031 -9.972656 4.90625 -10.390625 C 5.613281 -10.804688 6.4375 -11.015625 7.375 -11.015625 C 8.332031 -11.015625 9.203125 -10.78125 9.984375 -10.3125 C 10.773438 -9.851562 11.394531 -9.203125 11.84375 -8.359375 C 12.289062 -7.523438 12.515625 -6.554688 12.515625 -5.453125 C 12.515625 -4.359375 12.289062 -3.382812 11.84375 -2.53125 C 11.394531 -1.675781 10.773438 -1.007812 9.984375 -0.53125 C 9.203125 -0.0625 8.332031 0.171875 7.375 0.171875 C 6.445312 0.171875 5.628906 -0.03125 4.921875 -0.4375 C 4.222656 -0.851562 3.691406 -1.375 3.328125 -2 L 3.328125 5.140625 L 1.515625 5.140625 L 1.515625 -10.828125 L 3.328125 -10.828125 Z M 10.671875 -5.453125 C 10.671875 -6.273438 10.503906 -6.988281 10.171875 -7.59375 C 9.847656 -8.195312 9.40625 -8.65625 8.84375 -8.96875 C 8.28125 -9.289062 7.664062 -9.453125 7 -9.453125 C 6.34375 -9.453125 5.734375 -9.289062 5.171875 -8.96875 C 4.609375 -8.644531 4.160156 -8.175781 3.828125 -7.5625 C 3.492188 -6.945312 3.328125 -6.238281 3.328125 -5.4375 C 3.328125 -4.613281 3.492188 -3.894531 3.828125 -3.28125 C 4.160156 -2.675781 4.609375 -2.210938 5.171875 -1.890625 C 5.734375 -1.566406 6.34375 -1.40625 7 -1.40625 C 7.664062 -1.40625 8.28125 -1.566406 8.84375 -1.890625 C 9.40625 -2.210938 9.847656 -2.675781 10.171875 -3.28125 C 10.503906 -3.894531 10.671875 -4.617188 10.671875 -5.453125 Z M 10.671875 -5.453125 "/></g></g></g><g fill="#5e16ec" fill-opacity="1"><g transform="translate(122.44993, 90.080636)"><g><path d="M 5.359375 0.171875 C 4.523438 0.171875 3.78125 0.03125 3.125 -0.25 C 2.46875 -0.53125 1.945312 -0.921875 1.5625 -1.421875 C 1.175781 -1.929688 0.960938 -2.519531 0.921875 -3.1875 L 2.78125 -3.1875 C 2.832031 -2.644531 3.085938 -2.203125 3.546875 -1.859375 C 4.003906 -1.515625 4.601562 -1.34375 5.34375 -1.34375 C 6.019531 -1.34375 6.554688 -1.492188 6.953125 -1.796875 C 7.347656 -2.097656 7.546875 -2.476562 7.546875 -2.9375 C 7.546875 -3.414062 7.332031 -3.769531 6.90625 -4 C 6.488281 -4.226562 5.84375 -4.457031 4.96875 -4.6875 C 4.15625 -4.894531 3.492188 -5.109375 2.984375 -5.328125 C 2.484375 -5.546875 2.050781 -5.867188 1.6875 -6.296875 C 1.320312 -6.722656 1.140625 -7.285156 1.140625 -7.984375 C 1.140625 -8.535156 1.304688 -9.039062 1.640625 -9.5 C 1.972656 -9.96875 2.441406 -10.335938 3.046875 -10.609375 C 3.648438 -10.878906 4.34375 -11.015625 5.125 -11.015625 C 6.320312 -11.015625 7.285156 -10.707031 8.015625 -10.09375 C 8.753906 -9.488281 9.148438 -8.660156 9.203125 -7.609375 L 7.40625 -7.609375 C 7.375 -8.171875 7.148438 -8.625 6.734375 -8.96875 C 6.316406 -9.3125 5.757812 -9.484375 5.0625 -9.484375 C 4.414062 -9.484375 3.898438 -9.34375 3.515625 -9.0625 C 3.128906 -8.789062 2.9375 -8.429688 2.9375 -7.984375 C 2.9375 -7.628906 3.050781 -7.335938 3.28125 -7.109375 C 3.519531 -6.878906 3.8125 -6.691406 4.15625 -6.546875 C 4.507812 -6.410156 4.992188 -6.257812 5.609375 -6.09375 C 6.390625 -5.875 7.023438 -5.660156 7.515625 -5.453125 C 8.003906 -5.253906 8.421875 -4.953125 8.765625 -4.546875 C 9.117188 -4.140625 9.300781 -3.601562 9.3125 -2.9375 C 9.3125 -2.351562 9.144531 -1.820312 8.8125 -1.34375 C 8.488281 -0.863281 8.023438 -0.488281 7.421875 -0.21875 C 6.816406 0.0390625 6.128906 0.171875 5.359375 0.171875 Z M 5.359375 0.171875 "/></g></g></g><g fill="#5e16ec" fill-opacity="1"><g transform="translate(132.76354, 90.080636)"><g><path d="M 11.125 -10.828125 L 11.125 0 L 9.328125 0 L 9.328125 -1.59375 C 8.984375 -1.039062 8.503906 -0.609375 7.890625 -0.296875 C 7.285156 0.00390625 6.613281 0.15625 5.875 0.15625 C 5.03125 0.15625 4.269531 -0.015625 3.59375 -0.359375 C 2.925781 -0.710938 2.394531 -1.238281 2 -1.9375 C 1.613281 -2.632812 1.421875 -3.484375 1.421875 -4.484375 L 1.421875 -10.828125 L 3.203125 -10.828125 L 3.203125 -4.71875 C 3.203125 -3.65625 3.472656 -2.835938 4.015625 -2.265625 C 4.554688 -1.691406 5.289062 -1.40625 6.21875 -1.40625 C 7.1875 -1.40625 7.945312 -1.703125 8.5 -2.296875 C 9.050781 -2.890625 9.328125 -3.75 9.328125 -4.875 L 9.328125 -10.828125 Z M 11.125 -10.828125 "/></g></g></g><g fill="#5e16ec" fill-opacity="1"><g transform="translate(145.408583, 90.080636)"><g><path d="M 14.546875 -11.03125 C 15.390625 -11.03125 16.140625 -10.851562 16.796875 -10.5 C 17.453125 -10.15625 17.972656 -9.632812 18.359375 -8.9375 C 18.742188 -8.238281 18.9375 -7.390625 18.9375 -6.390625 L 18.9375 0 L 17.15625 0 L 17.15625 -6.125 C 17.15625 -7.207031 16.890625 -8.035156 16.359375 -8.609375 C 15.828125 -9.179688 15.101562 -9.46875 14.1875 -9.46875 C 13.25 -9.46875 12.503906 -9.164062 11.953125 -8.5625 C 11.398438 -7.96875 11.125 -7.101562 11.125 -5.96875 L 11.125 0 L 9.34375 0 L 9.34375 -6.125 C 9.34375 -7.207031 9.078125 -8.035156 8.546875 -8.609375 C 8.015625 -9.179688 7.296875 -9.46875 6.390625 -9.46875 C 5.453125 -9.46875 4.707031 -9.164062 4.15625 -8.5625 C 3.601562 -7.96875 3.328125 -7.101562 3.328125 -5.96875 L 3.328125 0 L 1.515625 0 L 1.515625 -10.828125 L 3.328125 -10.828125 L 3.328125 -9.265625 C 3.679688 -9.835938 4.15625 -10.273438 4.75 -10.578125 C 5.351562 -10.878906 6.015625 -11.03125 6.734375 -11.03125 C 7.648438 -11.03125 8.457031 -10.820312 9.15625 -10.40625 C 9.851562 -10 10.375 -9.40625 10.71875 -8.625 C 11.019531 -9.382812 11.519531 -9.972656 12.21875 -10.390625 C 12.914062 -10.816406 13.691406 -11.03125 14.546875 -11.03125 Z M 14.546875 -11.03125 "/></g></g></g></svg>